<svg version="1" xmlns="http://www.w3.org/2000/svg" width="1365.333" height="1365.333" viewBox="0 0 1024.000000 1024.000000"><path d="M0 512v512h1024V0H0v512zm722.4-384.3c-.4 2.1-1.7 8.1-3 13.3-1.2 5.2-3.2 13.8-4.4 19-1.1 5.2-2.9 13.1-4 17.5-1 4.4-2.1 9.1-2.4 10.5-.4 2-5.2 23.1-7.1 31.4-.3 1.1-1.6 6.8-2.9 12.6-1.3 5.8-3.3 14.3-4.4 19-1.2 4.7-2.3 9.7-2.6 11-.7 3.6-1.2 5.5-3.5 15.2-1.1 4.8-2.3 9.8-2.5 11-.2 1.3-1.4 6.6-2.6 11.8-4.2 18-5.8 25.5-5.6 25.7.2.2 118.6-94 125.1-99.5 1.1-.9 5.2-4.2 9-7.2s7.9-6.3 9-7.2c7.2-6.1 28.9-22.8 29.5-22.8.4 0 1 .8 1.3 1.7.3 1 2 4 3.6 6.8 1.7 2.7 3.4 5.7 3.8 6.5.4.8 3.8 6.9 7.6 13.5 3.9 6.6 7.9 13.6 9 15.5 1 1.9 8.1 14.3 15.7 27.5s15 26.1 16.4 28.7l2.6 4.7-11.7 3.6c-6.5 2-12.9 4-14.3 4.5-1.4.5-14.2 4.6-28.5 9-14.3 4.5-30.9 9.8-37 11.7-6 1.9-12.6 3.9-14.5 4.5-1.9.5-6 1.8-9 2.8-4.8 1.6-22.7 7.2-24 7.5-.3.1-6.3 2-13.5 4.3-7.1 2.3-21.4 6.8-31.7 10-10.4 3.2-19.1 6.1-19.4 6.4-.3.4 34.1 26.6 76.5 58.4l77 57.8-6.2 5.9c-3.4 3.3-18.1 17.5-32.7 31.7-41.7 40.5-46.4 45-47.1 45-.3 0-6.6-9.8-13.9-21.8-7.3-11.9-14.4-23.5-15.8-25.7-4.9-7.7-7-11.1-11.1-18-2.3-3.9-6.9-11.3-10.1-16.5-3.2-5.2-7.1-11.5-8.6-14-18.8-31.1-48.4-79-48.9-79-.3 0-6.2 9-8.5 13.1-.8 1.4-6.9 11.3-13.5 22-39.5 64.2-47.5 77.3-47.5 78 0 .5-.4.9-.9.9s-1.1.8-1.4 1.7c-.3 1-3.2 6-6.4 11-10.4 16.6-30.4 49.4-31 50.9-.3.8-.9 1.4-1.5 1.4-.5 0-6.6-5.6-13.6-12.4-7-6.8-16.1-15.7-20.3-19.7-4.2-4.1-17.5-17-29.7-28.8s-21.9-21.8-21.6-22.2c.2-.5 11.4-9 24.7-19 13.3-10 25.6-19.2 27.2-20.5 1.7-1.3 20.8-15.6 42.5-31.9 21.7-16.3 40.2-30.2 41.1-30.9.8-.7 4.2-3.2 7.5-5.6 3.2-2.4 7.2-5.4 8.7-6.7l2.8-2.3-2.3-.9c-1.3-.6-13.8-4.7-27.8-9.1-14-4.5-32.2-10.3-40.5-13-8.2-2.6-26.5-8.5-40.5-13s-28.4-9.1-32-10.3c-3.6-1.2-6.7-2.2-7-2.2-.3-.1-9.3-2.9-20-6.4-10.7-3.4-23.1-7.4-27.5-8.8-4.4-1.3-8.5-2.8-9.2-3.2-.9-.4 2.7-7.6 11.6-23.1 33.4-58.7 45.5-79.6 46.6-80.8.9-1 7.1 3.5 30.6 22.3 16.2 13 31.2 25.1 33.4 26.9 2.2 1.9 9.2 7.5 15.5 12.6 15.7 12.6 18.8 15 23 18.5 2 1.6 5.4 4.3 7.6 6 2.1 1.6 5.2 4.2 6.9 5.6 4.9 4.2 52.9 42.5 54.1 43.2.8.4.5-2.1-.7-7.1-1-4.2-3.6-15.8-5.8-25.7-13.1-58.7-25.5-114.3-27.7-124-.2-1.1-.6-3.1-.9-4.5-.2-1.4-2.3-10.4-4.5-20.1-2.2-9.7-4-18.2-4-18.8 0-.8 16.6-1.1 60-1.1h60.1l-.7 3.7zM380.7 734.5c.1 51.7 0 94.9-.2 96-.4 2-1.1 2-95.7 1.9-52.4-.1-95.5-.2-95.8-.3-.4-.1-.4-167.7-.1-188.1l.1-3.5h191.5l.2 94z"/></svg>