<svg version="1" xmlns="http://www.w3.org/2000/svg" width="682.667" height="682.667" viewBox="0 0 512.000000 512.000000"><path d="M0 256v256h512V0H0v256zM361.5 63.2c-1.3 3.7-22.5 98.1-22.1 98.5.2.2 19.3-14.7 42.4-33.1 23.1-18.5 42.4-33.6 42.8-33.6.5 0 7.5 11.6 15.6 25.8 9.9 17.3 14.3 25.9 13.5 26.3-.7.4-23 7.5-49.7 15.9-26.7 8.4-49.1 15.5-49.7 15.9-.8.4 13.9 12 37.1 29.4l38.4 28.8-17.2 16.8c-21.5 21.1-25.5 24.6-26.5 23.5-.4-.5-12.2-19.6-26.1-42.4-13.9-22.8-25.8-42-26.4-42.7-.8-.9-8 10-28.4 43.3-15.1 24.5-27.8 44.4-28.2 44.2-1.3-.5-42-39.9-42-40.6 0-.4 17.4-13.8 38.7-29.7l38.6-29-25.9-8.3c-14.2-4.6-37.7-12.2-52.2-16.8l-26.3-8.5 3.3-5.8c20.6-36.2 26.4-46.1 27.1-46.1.4 0 19.3 14.9 42 33.1 22.7 18.3 41.7 33.6 42.4 34.1.8.7.9-.1.3-2.9-14.3-64.4-21.2-95-21.5-96.1-.3-.9 6.1-1.2 30-1.2s30.3.3 30 1.2zM190 368v48H94v-47.3c0-26.1.3-47.7.7-48 .3-.4 21.9-.7 48-.7H190v48z"/></svg>